<?xml version="1.0" encoding="UTF-8"?>
<svg xmlns="http://www.w3.org/2000/svg" viewBox="0 0 767.16 767.16">
  <defs>
    <style>
      .cls-1 {
        fill: #a290ec;
        opacity: .25;
      }

      .cls-2, .cls-3 {
        fill: #fff;
      }

      .cls-4 {
        fill: none;
      }

      .cls-5 {
        fill: #ac9aef;
      }

      .cls-6 {
        fill: #7f6cd3;
      }

      .cls-7 {
        isolation: isolate;
      }

      .cls-8 {
        fill: #aee0e8;
      }

      .cls-3 {
        mix-blend-mode: soft-light;
      }

      .cls-9 {
        fill: #b1aad6;
      }
    </style>
  </defs>
  <g class="cls-7">
    <g id="Layer_2" data-name="Layer 2">
      <g id="Layer_9" data-name="Layer 9">
        <g id="shadow">
          <ellipse class="cls-9" cx="383.6" cy="721.28" rx="200.22" ry="18.44"/>
        </g>
        <g id="Skin">
          <path class="cls-5" d="M529.66,521.26c-3.15,4.19,1.74,6.56,3.69,8.95,18.9,23.2,49.11,59.82,44.15,91.89-2.49,16.08-20.67,26.03-34.27,14.75-5.44-4.51-2.78-9.5-3.62-15.38-1.68-11.73-5.47-26.77-10.59-37.41-.57-1.19-.54-2.96-2.27-3.22,7.25,37.54,4.14,79.3-15.84,112.67-13.07,21.82-37.31,32.9-61.85,22.51-9.35-3.96-16.45-12.33-26.29-14.72-12.18-2.96-68.75-2.82-81.03,1.05-8.11,2.55-16.28,10.67-24.65,14.35-44.58,19.61-77.6-27.7-81.23-67.48-1.02-11.19,2.25-10.73,5.66-19.1,2.67-6.54,4.26-13.51,6.21-20.28-3.68,2.47-4.87,7.24-7.58,10.91-8.43,11.4-22.73,22.98-37.83,21-8.45-1.1-16.89-8.02-18.35-16.65-3.27-19.43,17.81-58.18,29.79-73.74,7.21-9.37,16.6-16.85,24.02-26.02,0-1.6-1.18-2.06-2.11-2.94-7.59-7.15-23.12-14.15-32.4-21.59-36.61-29.34-45.58-78.78-35.05-122.99,19.4-81.43,96.39-146.22,170.16-178.84,39.11-17.3,56.61-14.83,94.71,3.01,82.8,38.77,176.15,117.49,169.69,218.39-2.21,34.46-21.66,67.65-49.73,87.27-3.94,2.76-22.32,12.2-23.39,13.61Z"/>
          <path class="cls-8" d="M383.58,153.92c-31.44,0-57.02-25.58-57.02-57.02s25.58-57.02,57.02-57.02,57.02,25.58,57.02,57.02-25.58,57.02-57.02,57.02Z"/>
        </g>
        <g id="Eyes">
          <g>
            <path d="M289.52,329.12c71.08-9.01,72.95,110.23,4.73,105.7-59-3.92-54.48-99.4-4.73-105.7Z"/>
            <path d="M522.39,343.18c25.05,27.05,17.28,88.14-25.17,90.64-47.06,2.78-59.84-66.29-30.53-94.53,15.43-14.86,41.73-11.2,55.7,3.88Z"/>
            <path class="cls-2" d="M484.47,349.01c12.64-2.62,14.87,21.94,1.75,22.89-14.73,1.06-12.33-20.69-1.75-22.89Z"/>
            <path class="cls-2" d="M314.44,351.05c12.89-2.97,16.38,14.49,7.24,20.23-12.59,7.91-20.49-17.17-7.24-20.23Z"/>
          </g>
        </g>
        <g id="Highlight">
          <ellipse class="cls-3" cx="489.25" cy="262.6" rx="13.2" ry="17.42" transform="translate(-15.49 494.05) rotate(-52.86)"/>
          <ellipse class="cls-3" cx="406.28" cy="71.06" rx="13.2" ry="17.42" transform="translate(104.33 352.02) rotate(-52.86)"/>
        </g>
        <g id="shadow_body">
          <path class="cls-1" d="M213.34,291.36v43.42c0,31.7,10.13,62.58,28.9,88.12h0c5.85,7.95,13.21,14.67,21.66,19.77l58.46,35.25c6.68,4.03,13.51,7.8,20.47,11.31l38.42,19.35c26.03,13.11,56.46,14.29,83.43,3.24l30.66-12.58,103.33-44.99-9.55,33.87-36.08,19.52-19.7,22.56,38.81,32.23,11.66,44.74-11.94,29.33-32.85-3.85-14.92,62.03-38.94,21.91-71.19-14.51-38.89-2.72-77.47-8.13-26.29-21.33-32.09-82.67-7.27-66.22-67.87-66.92,5.67-74.86,12.2-42.22,31.37-45.67Z"/>
          <path class="cls-6" d="M349.58,701.95c-15.83,1.77-25.99,14.42-41.89,18.18-27.95,6.6-56.72-12.82-66.39-37.66-3.9-10.03-10-34.22-6.56-44.22,2.88-8.35,11.67-16.86,11.92-26.63-9.48,19.52-28.46,38.84-50.7,31.63-25.18-8.17-10.62-47.16-3-63.11,7.44-15.58,19.9-29.47,31.67-42.03,2.47-2.63,11.66-10.21,11.66-12.52,0-1.45-3.35-3.68-4.33-4.56-4.86-4.34-16.44-8.25-22.44-12.44-59.7-41.69-56.87-110.44-27.56-171.56,1.38,1.65,1.33,4.65,1.09,6.39-8.76,63.2,9.52,110.67,64.71,144.62,27.48,16.9,55.99,24.59,86.18,33.82,10.27,3.14,20.55,6.4,30.73,9.77l-9.83,4.65c-17.7,4.81-36.63,5.01-53.61,12.41l-8.08,5.9c-26.34,24.41-24.26,68.09-3.46,95.5,31.64,41.7,84.58,38.34,132.44,37.48,12.88-.23,27.41.77,40.08-.93,2.29-.31,9.08-3.26,10.3-2.82,1.84.67,11.97,23.92,15.69,28.77.3.4.57.82.76,1.29l.28.68c.05.47-3.61,1.84-4.08,2.04-15.4,5.13-27.61,6.16-41.7-1.47-11.09-6-15.7-10.63-29.48-13.04l-64.4-.14Z"/>
          <path class="cls-6" d="M536.02,607.18l35.86,29.33c-3.07,2.8-8.95,5.25-13.35,5.7-5.85.6-18.26-2.88-19.5-9.55-1.43-7.74-1.12-17.12-3.02-25.48Z"/>
          <path class="cls-6" d="M443.82,113.69c-7.33,26.37-31.53,45.73-60.24,45.73-34.53,0-62.52-27.99-62.52-62.52,0-18.63,8.15-35.35,21.07-46.8-4.81,8.63-7.54,18.56-7.54,29.13,0,33.16,26.88,60.04,60.05,60.04,20.34,0,38.31-10.11,49.18-25.58Z"/>
        </g>
        <g id="Body">
          <path d="M612.27,436.87c22.04-111.16-86.02-205.71-176.86-246.21-32.9-14.67-53.68-20.45-88.92-7.57-96.03,35.11-204.66,136.1-193.74,247.23,4.03,40.94,30.18,74.89,64.99,95.05l.89,1.8c-19.19,24.47-50.63,64.11-46.79,97.06,2.8,24.01,31.16,36.29,51.89,25.61,5.42,46.94,41.33,96.96,94.29,78.78,10.29-3.54,20.68-13.51,29.44-15.55,10.79-2.52,63.73-2.52,74.31.24,3.53.92,8.68,5.78,12.3,7.7,17.52,9.28,32.7,13.3,52.45,7.11,31.92-10,47.83-47.6,52.24-78.26,11.12,1.64,19.04,5.49,30.25.75,36.05-15.22,17.56-64.16,3.15-88.17-7.73-12.87-16.87-24.43-26.39-36,33.47-20,58.79-50.68,66.5-89.57ZM553.05,507.65c-3.94,2.76-22.32,12.2-23.39,13.61-3.15,4.19,1.74,6.56,3.69,8.95,18.9,23.2,49.11,59.82,44.15,91.89-2.49,16.08-20.67,26.03-34.27,14.75-5.44-4.51-2.78-9.5-3.62-15.38-1.68-11.73-5.47-26.77-10.59-37.41-.57-1.19-.54-2.96-2.27-3.22,7.25,37.54,4.14,79.3-15.84,112.67-13.07,21.82-37.31,32.9-61.85,22.51-9.35-3.96-16.45-12.33-26.29-14.72-12.18-2.96-68.75-2.82-81.03,1.05-8.11,2.55-16.28,10.67-24.65,14.35-44.58,19.61-77.6-27.7-81.23-67.48-1.02-11.19,2.25-10.73,5.66-19.1,2.67-6.54,4.26-13.51,6.21-20.28-3.68,2.47-4.87,7.24-7.58,10.91-8.43,11.4-22.73,22.98-37.83,21-8.45-1.1-16.89-8.02-18.35-16.65-3.27-19.43,17.81-58.18,29.79-73.74,7.21-9.37,16.6-16.85,24.02-26.02,0-1.6-1.18-2.06-2.11-2.94-7.59-7.15-23.12-14.15-32.4-21.59-36.61-29.34-45.58-78.78-35.05-122.99,19.4-81.43,96.39-146.22,170.16-178.84,39.11-17.3,56.61-14.83,94.71,3.01,82.8,38.77,176.15,117.49,169.69,218.39-2.21,34.46-21.66,67.65-49.73,87.27Z"/>
        </g>
        <g id="Mouth">
          <g>
            <path d="M358.54,426.38c10.21-2.22,75.64-2.48,86.11-.51,16.99,3.2,7.58,25.24.96,34.99-17.91,26.38-56.02,30.98-79.75,9.62-10.45-9.41-28.98-39.38-7.32-44.1Z"/>
            <path class="cls-2" d="M422.23,467.72c-15.08,3.47-33.35,6.49-44.51-6.43-.01-8.82,40.38-8.67,43.5-4.12l1.01,10.55Z"/>
          </g>
        </g>
        <g id="Halo">
          <path d="M383.58,45.38c28.41,0,51.52,23.11,51.52,51.52s-23.11,51.52-51.52,51.52-51.52-23.11-51.52-51.52,23.11-51.52,51.52-51.52h0ZM383.58,34.38c-34.53,0-62.52,27.99-62.52,62.52s27.99,62.52,62.52,62.52,62.52-27.99,62.52-62.52-27.99-62.52-62.52-62.52h0Z"/>
        </g>
        <rect class="cls-4" width="767.16" height="767.16"/>
      </g>
    </g>
  </g>
</svg>